<svg xmlns="http://www.w3.org/2000/svg">
  <symbol id="mas" viewBox="0 0 384 384" xmlns="http://www.w3.org/2000/svg" data-name="mas">
    <title>Mas</title>
    <g>
      <g><g><circle cx="192" cy="42.667" r="42.667"/></g></g>
      <g><g><circle cx="192" cy="192" r="42.667"/></g></g>
      <g><g><circle cx="192" cy="341.333" r="42.667"/></g></g>
    </g>
  </symbol>
  <symbol id="candado" viewBox="0 0 512 512" xmlns="http://www.w3.org/2000/svg" data-name="candado">
    <title>Candado</title>
    <g>
      <g>
        <path d="m437.02 74.98c-48.353-48.351-112.64-74.98-181.02-74.98s-132.667 26.629-181.02 74.98c-48.351 48.353-74.98 112.64-74.98 181.02s26.629 132.667 74.98 181.02c48.353 48.351 112.64 74.98 181.02 74.98s132.667-26.629 181.02-74.98c48.351-48.353 74.98-112.64 74.98-181.02s-26.629-132.667-74.98-181.02zm-181.02 407.02c-124.617 0-226-101.383-226-226s101.383-226 226-226 226 101.383 226 226-101.383 226-226 226z"/>
        <path d="m256 271c-8.284 0-15 6.716-15 15v30c0 8.284 6.716 15 15 15s15-6.716 15-15v-30c0-8.284-6.716-15-15-15z"/>
        <path d="m356 211h-5v-15c0-52.383-42.617-95-95-95s-95 42.617-95 95v15h-5c-8.284 0-15 6.716-15 15v150c0 8.284 6.716 15 15 15h200c8.284 0 15-6.716 15-15v-150c0-8.284-6.716-15-15-15zm-165-15c0-35.841 29.159-65 65-65s65 29.159 65 65v15h-130zm150 165h-170v-120h170z"/>
      </g>
    </g>
  </symbol>
  <symbol id="logo" viewBox="0 0 2000.000000 485.000000" xmlns="http://www.w3.org/2000/svg" data-name="logo">
    <title>Logo</title>
    <g>
      <g transform="translate(0.000000,485.000000) scale(0.100000,-0.100000)" fill="#000" stroke="none">
        <path d="M13475 2613 c-210 -28 -407 -182 -480 -378 -66 -174 -49 -394 42 -542 42 -69 80 -113 139 -161 l39 -32 -833 0 -832 0 0 545 0 545 -135 0 -135 0 0 -245 0 -245 -230 0 -230 0 0 245 0 245 -135 0 -135 0 0 -545 0 -545 -255 0 -255 0 0 430 0 430 165 0 165 0 0 115 0 115 -465 0 -465 0 0 -115 0 -115 165 0 165 0 0 -430 0 -430 -255 0 -255 0 0 545 0 545 -135 0 -135 0 0 -545 0 -545 -250 0 c-137 0 -250 1 -250 3 0 2 272 782 350 1004 l29 83 -147 0 -147 0 -109 -317 c-60 -175 -112 -321 -115 -325 -3 -4 -51 139 -105 318 l-99 324 -141 0 -141 0 -100 -325 c-55 -178 -103 -319 -106 -312 -4 7 -56 153 -114 325 l-108 312 -143 0 c-83 0 -144 -4 -144 -9 0 -6 83 -249 185 -541 102 -292 185 -533 185 -536 0 -2 -513 -4 -1140 -4 l-1140 0 0 119 0 118 158 6 c86 3 180 12 207 20 135 37 215 98 261 200 27 59 29 69 29 197 0 116 -4 143 -23 191 -42 104 -117 169 -245 212 -56 19 -92 21 -359 25 l-298 4 0 -546 0 -546 -90 0 -90 0 0 80 0 80 -250 0 -250 0 0 465 0 465 -135 0 -135 0 0 -545 0 -545 -110 0 -110 0 0 75 0 75 -300 0 -300 0 0 120 0 120 260 0 260 0 0 115 0 115 -260 0 -260 0 0 115 0 115 290 0 290 0 0 120 0 120 -425 0 -425 0 0 -545 0 -545 -140 0 -140 0 0 545 0 545 -135 0 -135 0 0 -245 0 -245 -225 0 -225 0 0 245 0 245 -135 0 -135 0 0 -545 0 -545 -75 0 -75 0 0 -40 0 -40 210 0 210 0 0 225 0 225 225 0 225 0 0 -225 0 -225 2065 0 2065 0 0 -35 0 -35 -225 0 -225 0 0 -75 0 -75 495 0 495 0 0 75 0 75 -225 0 -225 0 0 35 0 35 578 0 579 0 118 378 c65 207 121 385 124 395 5 12 52 -124 131 -377 l124 -396 1283 0 1283 0 0 225 0 225 230 0 230 0 0 -225 0 -225 480 0 480 0 0 -35 0 -35 -225 0 -225 0 0 -75 0 -75 495 0 495 0 0 75 0 75 -225 0 -225 0 0 35 0 35 3080 0 3080 0 0 40 0 40 -182 0 -183 0 34 21 c56 34 137 124 165 183 82 172 84 416 7 582 -38 81 -132 181 -209 222 -125 67 -176 75 -504 79 l-298 5 0 -546 0 -546 -140 0 -140 0 0 545 0 545 -135 0 -135 0 0 -545 0 -545 -279 0 -280 0 201 498 c110 273 209 518 219 545 l19 47 -148 0 -147 0 -146 -366 -146 -367 -145 364 -146 364 -146 3 c-80 1 -146 0 -146 -3 0 -3 95 -242 211 -532 116 -291 213 -534 216 -540 4 -10 -76 -13 -378 -13 l-384 1 30 21 c95 68 184 198 221 323 25 83 25 259 0 340 -57 190 -203 340 -391 402 -69 23 -97 26 -205 27 -111 0 -134 -3 -205 -28 -198 -68 -350 -232 -396 -426 -18 -75 -15 -231 5 -309 32 -123 123 -259 221 -329 l30 -21 -273 -1 -274 0 49 39 c26 21 59 50 73 65 l24 27 -89 89 -88 89 -45 -45 c-172 -169 -456 -131 -561 74 -11 22 -25 69 -31 106 -30 167 46 313 198 384 49 23 70 27 147 27 109 -1 176 -27 256 -102 l51 -48 45 50 c24 28 62 71 84 96 l39 47 -60 55 c-134 124 -335 185 -525 160z m1442 -255 c73 -27 154 -105 191 -185 24 -52 27 -70 27 -163 0 -88 -4 -113 -23 -154 -129 -281 -484 -285 -615 -8 -29 61 -32 76 -32 162 1 102 16 151 72 233 31 45 106 102 160 122 58 21 153 18 220 -7z m-9381 -29 c62 -31 87 -78 87 -160 -1 -83 -31 -142 -87 -168 -36 -18 -62 -21 -169 -21 l-127 0 0 191 0 192 124 -5 c105 -4 131 -9 172 -29z m12259 21 c194 -22 289 -109 314 -285 25 -174 -47 -323 -182 -379 -46 -19 -175 -36 -269 -36 l-68 0 0 355 0 355 58 0 c31 0 98 -5 147 -10z"/>
      </g>
    </g>
  </symbol>
</svg>
